<?xml version="1.0" encoding="UTF-8" standalone="no"?>
<svg xmlns:dc="http://purl.org/dc/elements/1.1/" xmlns:cc="http://creativecommons.org/ns#" xmlns:rdf="http://www.w3.org/1999/02/22-rdf-syntax-ns#" xmlns:svg="http://www.w3.org/2000/svg" xmlns="http://www.w3.org/2000/svg" viewBox="0 0 1747.93 679.75">
  <path d="M1153.55,1330.15h119.26v83.48H1046.23v-322h107.32ZM1333.41,906.8a167,167,0,1,1,166.95,167A167,167,0,0,1,1333.41,906.8Zm107.32,0a59.63,59.63,0,1,0,59.63-59.63A59.63,59.63,0,0,0,1440.73,906.8Zm598,53.66,65.59,107.33h119.25l-107.33-161,107.33-161H2104.36l-65.59,107.32V745.81H1931.44v322h107.33ZM1848,1073.75c16.58,0,44.51-2.45,59.63-7V942.47c-10.88,14.52-40.09,24-59.63,24a59.63,59.63,0,0,1,0-119.26c19.54,0,48.75,9.44,59.63,24V746.8c-15.12-4.51-43-7-59.63-7a167,167,0,1,0,0,333.91Zm-694.41-6H1046.23v-322h167c59.28,0,107.33,42.09,107.33,101.36,0,45.12-24.41,86.21-63.85,93.64l81.74,127H1219.14l-65.59-107.33Zm0-166.95h23.85a35.78,35.78,0,0,0,0-71.56h-23.85Zm1082,166.95h226.58V984.31H2342.87V948.54h95.4V865.06h-95.4V829.28h119.25V745.81H2235.54Z" fill="#FFFFFF"/>
</svg>
